<svg width="32" height="32" viewBox="0 0 32 32" fill="none" xmlns="http://www.w3.org/2000/svg">
<g id="Group 104">
<circle id="Ellipse 5" cx="16" cy="16" r="16" fill="#0146B1"/>
<path id="Vector" d="M15.2535 17.2449C15.464 17.0412 15.5341 16.7243 15.4172 16.4527C15.3003 16.1811 15.0197 16 14.7156 16H9.7579C9.45388 16 9.17326 15.8189 9.05633 15.5473C8.9394 15.2757 9.00956 14.9588 9.22003 14.7551L14.7624 9.39046C15.3003 8.86985 16.1889 8.86985 16.7268 9.39046L22.5966 15.0719C23.1345 15.5926 23.1345 16.4527 22.5966 16.9733L16.7268 22.6095C16.1889 23.1302 15.3003 23.1302 14.7624 22.6095L12.2368 20.1649L15.2535 17.2449Z" fill="white"/>
</g>
</svg>
