<svg width="79" height="62" viewBox="0 0 79 62" fill="none" xmlns="http://www.w3.org/2000/svg">
<g id="Group 84">
<g id="Group 81">
<circle id="Ellipse 3" opacity="0.1" cx="40" cy="31" r="21" fill="white"/>
<path id="Vector" d="M39.167 32.7231C39.5428 32.3593 39.6681 31.7935 39.4593 31.3084C39.2505 30.8234 38.7494 30.5 38.2065 30.5H29.3534C28.8105 30.5 28.3094 30.1766 28.1006 29.6916C27.8918 29.2065 28.0171 28.6407 28.3929 28.2769L38.29 18.6973C39.2505 17.7676 40.8374 17.7676 41.7979 18.6973L52.2796 28.8428C53.2401 29.7724 53.2401 31.3084 52.2796 32.2381L41.7979 42.3027C40.8374 43.2324 39.2505 43.2324 38.29 42.3027L33.7799 37.9373L39.167 32.7231Z" fill="white"/>
</g>
</g>
</svg>
