<svg width="23" height="24" viewBox="0 0 23 24" fill="none" xmlns="http://www.w3.org/2000/svg">
<path id="Vector" d="M10.186 13.8748C10.5288 13.532 10.6431 12.9987 10.4526 12.5416C10.2622 12.0845 9.80507 11.7798 9.30988 11.7798H1.23449C0.739304 11.7798 0.282207 11.475 0.0917496 11.0179C-0.0987076 10.5609 0.015567 10.0276 0.35839 9.68475L9.38606 0.657077C10.2622 -0.219026 11.7096 -0.219026 12.5857 0.657077L22.1467 10.218C23.0228 11.0941 23.0228 12.5416 22.1467 13.4177L12.5857 22.9025C11.7096 23.7786 10.2622 23.7786 9.38606 22.9025L5.27219 18.7886L10.186 13.8748Z" fill="url(#paint0_linear_84_5194)"/>
<defs>
<linearGradient id="paint0_linear_84_5194" x1="0.674739" y1="15.6165" x2="20.6016" y2="8.14387" gradientUnits="userSpaceOnUse">
<stop stop-color="#9ED7FF"/>
<stop offset="0.5" stop-color="#5277FF"/>
<stop offset="1" stop-color="#3624C7"/>
</linearGradient>
</defs>
</svg>
