<svg width="20" height="20" viewBox="0 0 20 20" fill="none" xmlns="http://www.w3.org/2000/svg">
<g id="Iconsax/Linear/messagetext1" clipPath="url(#clip0_247_3013)">
<path id="Vector" d="M7.08268 15.8337H6.66602C3.33268 15.8337 1.66602 15.0003 1.66602 10.8337V6.66699C1.66602 3.33366 3.33268 1.66699 6.66602 1.66699H13.3327C16.666 1.66699 18.3327 3.33366 18.3327 6.66699V10.8337C18.3327 14.167 16.666 15.8337 13.3327 15.8337H12.916C12.6577 15.8337 12.4077 15.9587 12.2493 16.167L10.9993 17.8337C10.4493 18.567 9.54935 18.567 8.99935 17.8337L7.74935 16.167C7.61602 15.9837 7.30768 15.8337 7.08268 15.8337Z" stroke="#999999" strokeWidth="1.5" strokeMiterlimit="10" strokeLinecap="round" strokeLinejoin="round"/>
<path id="Vector_2" d="M5.83398 6.66699H14.1673M5.83398 10.8337H10.834" stroke="#999999" strokeWidth="1.5" strokeLinecap="round" strokeLinejoin="round"/>
</g>
<defs>
<clipPath id="clip0_247_3013">
<rect width="20" height="20" fill="white"/>
</clipPath>
</defs>
</svg>
