<svg width="22" height="22" viewBox="0 0 22 22" fill="none" xmlns="http://www.w3.org/2000/svg">
<g id="moon">
<path id="Vector" d="M11 2.75C9.90599 3.84402 9.29137 5.32782 9.29137 6.875C9.29137 8.42218 9.90599 9.90598 11 11C12.094 12.094 13.5778 12.7086 15.125 12.7086C16.6722 12.7086 18.156 12.094 19.25 11C19.25 12.6317 18.7662 14.2267 17.8596 15.5835C16.9531 16.9402 15.6646 17.9976 14.1571 18.622C12.6497 19.2464 10.9909 19.4098 9.39051 19.0915C7.79017 18.7732 6.32016 17.9874 5.16637 16.8336C4.01259 15.6798 3.22685 14.2098 2.90853 12.6095C2.5902 11.0092 2.75357 9.35035 3.378 7.84286C4.00242 6.33537 5.05984 5.0469 6.41655 4.14038C7.77325 3.23385 9.36831 2.75 11 2.75Z" stroke="white" strokeWidth="2" strokeLinecap="round" strokeLinejoin="round"/>
</g>
</svg>
