<svg width="28" height="28" viewBox="0 0 28 28" fill="none" xmlns="http://www.w3.org/2000/svg">
<g id="Iconsax/Bold/wallet1">
<path id="Vector" d="M13.93 2.58074L11.1183 9.12574H8.30665C7.83998 9.12574 7.38498 9.16074 6.94165 9.25407L8.10832 6.45407L8.15498 6.34907L8.22498 6.16241C8.25998 6.08074 8.28332 6.01074 8.31832 5.95241C9.67165 2.81407 11.1883 1.83407 13.93 2.58074ZM21.8528 9.43841L21.8295 9.42674C21.1295 9.22841 20.4178 9.12341 19.6945 9.12341H12.3912L15.0162 3.02174L15.0512 2.94007C15.2145 2.99841 15.3895 3.08007 15.5645 3.13841L18.1428 4.22341C19.5778 4.81841 20.5812 5.43674 21.1995 6.18341C21.3045 6.32341 21.3978 6.45174 21.4912 6.60341C21.5962 6.76674 21.6778 6.93007 21.7245 7.10507C21.7712 7.21007 21.8062 7.30341 21.8295 7.40841C22.0045 8.00341 22.0162 8.68007 21.8528 9.43841ZM14.6067 20.6011H14.8983C15.2483 20.6011 15.54 20.2861 15.54 19.9011C15.54 19.4111 15.4 19.3411 15.0967 19.2244L14.6067 19.0494V20.6011Z" fill="white"/>
<path id="Vector_2" d="M21.336 11.1069C20.811 10.9552 20.2627 10.8735 19.691 10.8735H8.30436C7.51102 10.8735 6.76436 11.0252 6.06436 11.3285C5.04015 11.7691 4.16736 12.5 3.55369 13.4309C2.94001 14.3617 2.61231 15.4519 2.61102 16.5669V18.8419C2.61102 19.1219 2.63436 19.3902 2.66936 19.6702C2.92602 23.3802 4.90936 25.3635 8.61936 25.6085C8.88769 25.6435 9.15602 25.6669 9.44769 25.6669H18.5477C22.8644 25.6669 25.1394 23.6135 25.361 19.5302C25.3727 19.3085 25.3844 19.0752 25.3844 18.8419V16.5669C25.3827 15.3434 24.9885 14.1527 24.2598 13.1699C23.5311 12.187 22.5063 11.4639 21.336 11.1069ZM15.491 18.0835C16.0277 18.2702 16.751 18.6669 16.751 19.9035C16.751 20.9652 15.9227 21.8169 14.896 21.8169H14.6044V22.0735C14.6044 22.4119 14.336 22.6802 13.9977 22.6802C13.6594 22.6802 13.391 22.4119 13.391 22.0735V21.8169H13.286C12.166 21.8169 11.2444 20.8719 11.2444 19.7052C11.2444 19.3669 11.5127 19.0985 11.851 19.0985C12.1894 19.0985 12.4577 19.3669 12.4577 19.7052C12.4577 20.1952 12.831 20.6035 13.286 20.6035H13.391V18.6319L12.5044 18.3169C11.9677 18.1302 11.2444 17.7335 11.2444 16.4969C11.2444 15.4352 12.0727 14.5835 13.0994 14.5835H13.391V14.3269C13.391 13.9885 13.6594 13.7202 13.9977 13.7202C14.336 13.7202 14.6044 13.9885 14.6044 14.3269V14.5835H14.7094C15.8294 14.5835 16.751 15.5285 16.751 16.6952C16.751 17.0335 16.4827 17.3019 16.1444 17.3019C15.806 17.3019 15.5377 17.0335 15.5377 16.6952C15.5377 16.2052 15.1644 15.7969 14.7094 15.7969H14.6044V17.7685L15.491 18.0835Z" fill="white"/>
<path id="Vector_3" d="M12.46 16.4969C12.46 16.9869 12.6 17.0569 12.9034 17.1735L13.3934 17.3485V15.7969H13.1017C12.74 15.7969 12.46 16.1119 12.46 16.4969Z" fill="white"/>
</g>
</svg>
