<svg width="22" height="22" viewBox="0 0 22 22" fill="none" xmlns="http://www.w3.org/2000/svg">
<g id="Iconsax/Bold/sms">
<path id="Vector" d="M15.583 3.20825H6.41634C3.66634 3.20825 1.83301 4.58325 1.83301 7.79158V14.2083C1.83301 17.4166 3.66634 18.7916 6.41634 18.7916H15.583C18.333 18.7916 20.1663 17.4166 20.1663 14.2083V7.79158C20.1663 4.58325 18.333 3.20825 15.583 3.20825ZM16.0138 8.79075L13.1447 11.0824C12.5397 11.5683 11.7697 11.8066 10.9997 11.8066C10.2297 11.8066 9.45051 11.5683 8.85467 11.0824L5.98551 8.79075C5.84526 8.67433 5.75549 8.50817 5.73498 8.32705C5.71448 8.14594 5.76484 7.96391 5.87551 7.81908C6.11384 7.52575 6.54467 7.47075 6.83801 7.70908L9.70717 10.0008C10.4038 10.5599 11.5863 10.5599 12.283 10.0008L15.1522 7.70908C15.4455 7.47075 15.8855 7.51658 16.1147 7.81908C16.353 8.11242 16.3072 8.55242 16.0138 8.79075Z" fill="#8687A8"/>
</g>
</svg>
