<svg width="28" height="28" viewBox="0 0 28 28" fill="none" xmlns="http://www.w3.org/2000/svg">
<path d="M6.69658 18.6663C6.82492 18.0947 6.59158 17.278 6.18325 16.8697L3.34825 14.0347C2.46158 13.148 2.11158 12.203 2.36825 11.3863C2.63658 10.5697 3.46492 10.0097 4.70158 9.79967L8.34158 9.19301C8.86658 9.09967 9.50825 8.63301 9.75325 8.15467L11.7599 4.12967C12.3432 2.97467 13.1366 2.33301 13.9999 2.33301C14.8632 2.33301 15.6566 2.97467 16.2399 4.12967L18.2466 8.15467C18.3983 8.45801 18.7132 8.74967 19.0516 8.94801L6.48658 21.513C6.32325 21.6763 6.04325 21.5247 6.08992 21.2913L6.69658 18.6663ZM21.8166 16.872C21.3966 17.292 21.1632 18.097 21.3032 18.6687L22.1082 22.1803C22.4466 23.6387 22.2366 24.7353 21.5133 25.2603C21.206 25.4751 20.838 25.5855 20.4633 25.5753C19.8682 25.5753 19.1682 25.3537 18.3983 24.8987L14.9799 22.8687C14.4432 22.5537 13.5566 22.5537 13.0199 22.8687L9.60158 24.8987C8.30658 25.657 7.19825 25.7853 6.48658 25.2603C6.21825 25.062 6.01992 24.7937 5.89158 24.4437L20.0782 10.257C20.6149 9.72034 21.3733 9.47534 22.1082 9.60367L23.2866 9.80201C24.5232 10.012 25.3516 10.572 25.6199 11.3887C25.8766 12.2053 25.5266 13.1503 24.6399 14.037L21.8166 16.872Z" fill="white"/>
</svg>
